<svg xmlns="http://www.w3.org/2000/svg" version="1.1" xmlns:xlink="http://www.w3.org/1999/xlink" xmlns:svgjs="http://svgjs.dev/svgjs" width="1000" height="1000" viewBox="0 0 1000 1000"><rect width="1000" height="1000" fill="#ffffff"></rect><g transform="matrix(0.7,0,0,0.7,149.715527508486,174.06412955465584)"><svg viewBox="0 0 265 247" data-background-color="#000000" preserveAspectRatio="xMidYMid meet" height="932" width="1000" xmlns="http://www.w3.org/2000/svg" xmlns:xlink="http://www.w3.org/1999/xlink"><g id="tight-bounds" transform="matrix(1,0,0,1,0.10769315750172836,-0.09999999999999432)"><svg viewBox="0 0 264.78461368499654 247.2" height="247.2" width="264.78461368499654"><g><svg viewBox="0 0 395.52 369.2531172385869" height="247.2" width="264.78461368499654"><g transform="matrix(1,0,0,1,0,162.2494614379204)"><svg viewBox="0 0 395.52 207.00365580066654" height="207.00365580066654" width="395.52"><g id="textblocktransform"><svg viewBox="0 0 395.52 207.00365580066654" height="207.00365580066654" width="395.52" id="textblock"><g><svg viewBox="0 0 395.52 207.00365580066654" height="207.00365580066654" width="395.52"><g transform="matrix(1,0,0,1,0,0)"><svg width="395.52" viewBox="36.38999938964844 -36.12999725341797 153.8300018310547 76.83000183105469" height="207.00365580066654" data-palette-color="#a1abb7"><svg></svg><svg></svg><g class="undefined-text-0" data-fill-palette-color="primary" id="text-0"><path xmlns="http://www.w3.org/2000/svg" d="M66.61-21.39l0.29 16.41c-0.76 0.96-1.703 1.797-2.83 2.51-1.12 0.72-2.323 1.317-3.61 1.79-1.287 0.467-2.607 0.82-3.96 1.06-1.347 0.233-2.63 0.35-3.85 0.35v0c-2.36 0-4.533-0.423-6.52-1.27-1.987-0.847-3.7-2.013-5.14-3.5-1.44-1.487-2.567-3.24-3.38-5.26-0.813-2.02-1.22-4.193-1.22-6.52v0c0-1.773 0.203-3.51 0.61-5.21 0.407-1.7 0.987-3.303 1.74-4.81 0.76-1.507 1.683-2.89 2.77-4.15 1.093-1.26 2.33-2.347 3.71-3.26 1.387-0.913 2.9-1.623 4.54-2.13 1.647-0.5 3.407-0.75 5.28-0.75v0c0.7 0 1.447 0.027 2.24 0.08 0.8 0.06 1.593 0.16 2.38 0.3 0.793 0.133 1.563 0.323 2.31 0.57 0.747 0.247 1.43 0.547 2.05 0.9v0l-0.68 9.33c-0.913-0.34-1.853-0.573-2.82-0.7-0.967-0.12-1.917-0.18-2.85-0.18v0c-1.3 0-2.517 0.2-3.65 0.6-1.127 0.4-2.11 0.973-2.95 1.72-0.84 0.747-1.503 1.657-1.99 2.73-0.487 1.073-0.73 2.287-0.73 3.64v0c0 0.847 0.113 1.663 0.34 2.45 0.227 0.793 0.573 1.493 1.04 2.1 0.46 0.613 1.037 1.107 1.73 1.48 0.693 0.373 1.497 0.56 2.41 0.56v0c0.613 0 1.25-0.08 1.91-0.24 0.66-0.167 1.227-0.443 1.7-0.83v0l0.1-1.91-5.86-0.09 0.29-7.33c2.427-0.08 4.853-0.147 7.28-0.2 2.42-0.06 4.86-0.14 7.32-0.24zM97.37-23.54v0c0 1.273-0.11 2.427-0.33 3.46-0.22 1.033-0.567 1.98-1.04 2.84-0.467 0.867-1.077 1.667-1.83 2.4-0.747 0.727-1.65 1.427-2.71 2.1v0l5.81 10.35-10.98 2.15-3.76-10.4-3.03 0.09-0.44 10.16h-10.5c0.087-3.713 0.163-7.407 0.23-11.08 0.073-3.68 0.16-7.377 0.26-11.09v0c0.033-1.873 0.067-3.73 0.1-5.57 0.033-1.833 0.097-3.687 0.19-5.56v0c1.14-0.427 2.263-0.777 3.37-1.05 1.107-0.28 2.22-0.497 3.34-0.65 1.113-0.153 2.243-0.26 3.39-0.32 1.147-0.053 2.323-0.08 3.53-0.08v0c1.853 0 3.647 0.257 5.38 0.77 1.733 0.513 3.267 1.283 4.6 2.31 1.333 1.02 2.403 2.297 3.21 3.83 0.807 1.527 1.21 3.307 1.21 5.34zM86.43-22.75v0c0-0.687-0.093-1.313-0.28-1.88-0.187-0.573-0.463-1.067-0.83-1.48-0.367-0.413-0.82-0.74-1.36-0.98-0.547-0.233-1.187-0.35-1.92-0.35v0c-0.327 0-0.643 0.02-0.95 0.06-0.313 0.04-0.617 0.1-0.91 0.18v0l-0.39 9.08h0.59c0.7 0 1.413-0.087 2.14-0.26 0.72-0.18 1.37-0.457 1.95-0.83 0.58-0.38 1.05-0.86 1.41-1.44 0.367-0.587 0.55-1.287 0.55-2.1zM128.91-17.24v0c0 1.487-0.17 2.917-0.51 4.29-0.34 1.373-0.833 2.663-1.48 3.87-0.64 1.2-1.42 2.303-2.34 3.31-0.92 1-1.953 1.857-3.1 2.57-1.147 0.72-2.397 1.277-3.75 1.67-1.347 0.4-2.777 0.6-4.29 0.6v0c-1.467 0-2.863-0.187-4.19-0.56-1.327-0.373-2.567-0.897-3.72-1.57-1.16-0.68-2.207-1.497-3.14-2.45-0.94-0.947-1.737-2.003-2.39-3.17-0.66-1.16-1.173-2.41-1.54-3.75-0.367-1.333-0.55-2.723-0.55-4.17v0c0-1.42 0.17-2.807 0.51-4.16 0.34-1.36 0.833-2.643 1.48-3.85 0.64-1.207 1.417-2.313 2.33-3.32 0.913-1.007 1.933-1.877 3.06-2.61 1.133-0.733 2.36-1.303 3.68-1.71 1.32-0.407 2.71-0.61 4.17-0.61v0c2.36 0 4.513 0.367 6.46 1.1 1.947 0.733 3.607 1.777 4.98 3.13 1.373 1.36 2.44 3.007 3.2 4.94 0.753 1.927 1.13 4.077 1.13 6.45zM118.07-16.6v0c0-0.7-0.1-1.38-0.3-2.04-0.207-0.66-0.503-1.247-0.89-1.76-0.393-0.513-0.877-0.927-1.45-1.24-0.58-0.32-1.243-0.48-1.99-0.48v0c-0.767 0-1.45 0.14-2.05 0.42-0.607 0.273-1.123 0.65-1.55 1.13-0.433 0.48-0.763 1.043-0.99 1.69-0.233 0.64-0.35 1.317-0.35 2.03v0c0 0.687 0.1 1.373 0.3 2.06 0.193 0.68 0.487 1.297 0.88 1.85 0.387 0.553 0.87 1 1.45 1.34 0.58 0.347 1.25 0.52 2.01 0.52v0c0.767 0 1.457-0.153 2.07-0.46 0.607-0.3 1.123-0.707 1.55-1.22 0.42-0.513 0.743-1.103 0.97-1.77 0.227-0.667 0.34-1.357 0.34-2.07zM159.82-27.15v0c0 1.207-0.057 2.533-0.17 3.98-0.113 1.447-0.3 2.943-0.56 4.49-0.26 1.547-0.597 3.113-1.01 4.7-0.42 1.587-0.937 3.113-1.55 4.58-0.62 1.467-1.34 2.837-2.16 4.11-0.827 1.28-1.773 2.397-2.84 3.35-1.06 0.953-2.25 1.703-3.57 2.25-1.32 0.54-2.787 0.81-4.4 0.81v0c-1.887 0-3.527-0.303-4.92-0.91-1.387-0.613-2.577-1.437-3.57-2.47-0.993-1.033-1.807-2.237-2.44-3.61-0.64-1.373-1.137-2.83-1.49-4.37-0.36-1.54-0.61-3.11-0.75-4.71-0.14-1.607-0.21-3.15-0.21-4.63v0c0-2.28 0.117-4.553 0.35-6.82 0.227-2.273 0.55-4.54 0.97-6.8v0l11.43 0.44c-0.44 2.553-0.82 5.12-1.14 7.7-0.313 2.58-0.47 5.17-0.47 7.77v0c0 0.28 0.01 0.693 0.03 1.24 0.027 0.547 0.073 1.157 0.14 1.83 0.067 0.673 0.16 1.363 0.28 2.07 0.12 0.713 0.287 1.36 0.5 1.94 0.213 0.587 0.47 1.07 0.77 1.45 0.3 0.373 0.653 0.56 1.06 0.56v0c0.473 0 0.897-0.223 1.27-0.67 0.373-0.453 0.703-1.053 0.99-1.8 0.287-0.747 0.533-1.61 0.74-2.59 0.213-0.973 0.393-1.99 0.54-3.05 0.147-1.06 0.263-2.117 0.35-3.17 0.093-1.06 0.167-2.047 0.22-2.96 0.06-0.907 0.097-1.71 0.11-2.41 0.02-0.7 0.03-1.223 0.03-1.57v0c0-1.267-0.02-2.53-0.06-3.79-0.04-1.26-0.103-2.517-0.19-3.77v0h11.43c0.193 2.24 0.29 4.517 0.29 6.83zM190.22-23.49v0c0 1.58-0.237 2.98-0.71 4.2-0.473 1.22-1.12 2.287-1.94 3.2-0.82 0.913-1.783 1.687-2.89 2.32-1.107 0.633-2.293 1.15-3.56 1.55-1.26 0.4-2.563 0.693-3.91 0.88-1.353 0.187-2.68 0.287-3.98 0.3v0 11.38h-11.38c0-3.727 0.007-7.437 0.02-11.13 0.02-3.693 0.047-7.42 0.08-11.18v0c0.033-1.987 0.04-3.973 0.02-5.96-0.013-1.987 0.027-3.99 0.12-6.01v0c2.087-0.613 4.17-1.077 6.25-1.39 2.087-0.307 4.237-0.46 6.45-0.46v0c1.253 0 2.507 0.1 3.76 0.3 1.253 0.207 2.453 0.53 3.6 0.97 1.147 0.44 2.213 0.99 3.2 1.65 0.98 0.66 1.83 1.443 2.55 2.35 0.713 0.913 1.28 1.953 1.7 3.12 0.413 1.16 0.62 2.463 0.62 3.91zM179.38-22.66v0c0-1.053-0.323-1.877-0.97-2.47-0.64-0.6-1.473-0.9-2.5-0.9v0c-0.34 0-0.693 0.03-1.06 0.09-0.367 0.06-0.713 0.13-1.04 0.21v0l-0.29 7.13c0.227 0.033 0.447 0.05 0.66 0.05 0.213 0 0.433 0 0.66 0v0c0.587 0 1.15-0.1 1.69-0.3 0.547-0.193 1.033-0.473 1.46-0.84 0.42-0.367 0.757-0.797 1.01-1.29 0.253-0.5 0.38-1.06 0.38-1.68z" fill="#000000" fill-rule="nonzero" stroke="none" stroke-width="1" stroke-linecap="butt" stroke-linejoin="miter" stroke-miterlimit="10" stroke-dasharray="" stroke-dashoffset="0" font-family="none" font-weight="none" font-size="none" text-anchor="none" style="mix-blend-mode: normal" data-fill-palette-color="primary" opacity="1"></path><path xmlns="http://www.w3.org/2000/svg" d="M76.43 5.3l11.23 0.73-8.93 33.99-12.11 0.68-10.99-34.33 11.57-1.07 4.69 20.02zM117.11 23.02v0c0 1.487-0.173 2.917-0.52 4.29-0.34 1.373-0.83 2.663-1.47 3.87-0.647 1.2-1.43 2.303-2.35 3.31-0.92 1-1.953 1.857-3.1 2.57-1.147 0.72-2.393 1.277-3.74 1.67-1.353 0.4-2.787 0.6-4.3 0.6v0c-1.467 0-2.863-0.187-4.19-0.56-1.327-0.373-2.567-0.897-3.72-1.57-1.16-0.68-2.207-1.497-3.14-2.45-0.933-0.947-1.73-2.003-2.39-3.17-0.66-1.16-1.173-2.41-1.54-3.75-0.367-1.333-0.55-2.723-0.55-4.17v0c0-1.42 0.17-2.807 0.51-4.16 0.347-1.36 0.84-2.643 1.48-3.85 0.647-1.207 1.423-2.313 2.33-3.32 0.913-1.007 1.937-1.877 3.07-2.61 1.127-0.733 2.35-1.303 3.67-1.71 1.32-0.407 2.713-0.61 4.18-0.61v0c2.36 0 4.51 0.367 6.45 1.1 1.947 0.733 3.607 1.777 4.98 3.13 1.38 1.36 2.447 3.007 3.2 4.94 0.76 1.927 1.14 4.077 1.14 6.45zM106.27 23.66v0c0-0.7-0.103-1.38-0.31-2.04-0.2-0.66-0.497-1.247-0.89-1.76-0.393-0.513-0.877-0.927-1.45-1.24-0.58-0.32-1.243-0.48-1.99-0.48v0c-0.767 0-1.45 0.14-2.05 0.42-0.607 0.273-1.123 0.65-1.55 1.13-0.433 0.48-0.763 1.043-0.99 1.69-0.227 0.64-0.34 1.317-0.34 2.03v0c0 0.687 0.097 1.373 0.29 2.06 0.193 0.68 0.487 1.297 0.88 1.85 0.387 0.553 0.87 1 1.45 1.34 0.58 0.347 1.253 0.52 2.02 0.52v0c0.76 0 1.447-0.153 2.06-0.46 0.607-0.3 1.123-0.707 1.55-1.22 0.42-0.513 0.747-1.103 0.98-1.77 0.227-0.667 0.34-1.357 0.34-2.07zM117.67 5.4l26.61-0.05-0.24 10.35-7.28 0.29-1.86 23.15-10.3 0.53 0.05-23.14-7.27 0.39zM146.23 5.05h22.51c-0.093 1.533-0.183 3.05-0.27 4.55-0.08 1.493-0.183 3.007-0.31 4.54v0l-10.35 0.53-0.25 3.08h7.28l-0.54 7.57-7.32 0.24-0.25 3.57h6.06 4.29c-0.093 1.787-0.193 3.563-0.3 5.33-0.107 1.767-0.2 3.537-0.28 5.31v0l-21.05 0.49z" fill="#000000" fill-rule="nonzero" stroke="none" stroke-width="1" stroke-linecap="butt" stroke-linejoin="miter" stroke-miterlimit="10" stroke-dasharray="" stroke-dashoffset="0" font-family="none" font-weight="none" font-size="none" text-anchor="none" style="mix-blend-mode: normal" data-fill-palette-color="secondary" opacity="1"></path></g></svg></g></svg></g></svg></g></svg></g><g transform="matrix(1,0,0,1,75.54432000000001,0)"><svg viewBox="0 0 244.43135999999996 139.63608871176262" height="139.63608871176262" width="244.43135999999996"><g><svg xmlns="http://www.w3.org/2000/svg" xmlns:xlink="http://www.w3.org/1999/xlink" version="1.1" x="0" y="0" viewBox="18.501567840576172 33.459999084472656 60.46712112426758 34.542999267578125" enable-background="new 0 0 100 100" xml:space="preserve" height="139.63608871176262" width="244.43135999999996" class="icon-icon-0" data-fill-palette-color="accent" id="icon-0"><g fill="#dedede" data-fill-palette-color="accent"><g fill="#dedede" data-fill-palette-color="accent"><g fill="#dedede" data-fill-palette-color="accent"><g fill="#dedede" data-fill-palette-color="accent"><path d="M75.036 52.356c4.69 1.377 3.886 4.781 3.872 7.063h-11.7c-0.421-1.381-1.46-2.671-3.942-3.396l-0.785-0.235c-3.284-0.955-5.042-1.471-5.502-2.506-0.112-0.373-0.078-0.787 1.017-1.185 3.519-1.024 5.302-1.56 5.723-2.878h0.222c-0.06-0.053-0.118-0.105-0.173-0.168-1.739-1.677-3.067-4.949-3.067-7.591 0-3.736 2.86-6.191 5.566-6.191 2.705 0 5.427 2.652 5.427 6.393 0 2.642-1.478 5.811-3.293 7.432C68.775 50.619 70.815 51.118 75.036 52.356z" fill="#000000" data-fill-palette-color="accent"></path></g><g fill="#dedede" data-fill-palette-color="accent"><g fill="#dedede" data-fill-palette-color="accent"><path d="M66.957 68.003H30.61c-0.022-0.364-0.045-0.728-0.089-1.157-0.112-1.436-0.224-2.914 0.178-4.265 0.491-1.585 1.764-2.978 4.71-3.836l1.139-0.364c5.179-1.479 7.948-2.314 8.863-4.265l0.291-0.491-0.022-0.622c-0.067-0.043-0.111-0.085-0.201-0.193-0.313-0.321-0.625-0.643-0.916-1.027-2.009-2.552-3.438-6.494-3.438-9.75 0-4.159 3.082-8.573 7.68-8.573 3.595 0 7.458 3.558 7.458 8.872 0 3.387-1.764 7.585-4.175 10.05-0.157 0.173-0.335 0.321-0.491 0.472l-0.29 0.258 0.089 0.387c0.625 2.441 3.438 3.277 9.086 4.884l1.161 0.364c2.925 0.858 4.309 2.273 4.912 3.836h0.022c0.559 1.521 0.491 3.173 0.424 4.715C66.979 67.531 66.979 67.788 66.957 68.003z" fill="#000000" data-fill-palette-color="accent"></path></g></g><g fill="#dedede" data-fill-palette-color="accent"><path d="M22.434 52.356c-4.694 1.377-3.884 4.781-3.872 7.063h11.696c0.424-1.381 1.459-2.671 3.946-3.396l0.782-0.235c3.287-0.955 5.046-1.471 5.503-2.506-0.125-0.411 0.102-1.027-1.019-1.185-3.517-1.024-5.3-1.56-5.72-2.878h-0.22c0.059-0.053 0.119-0.105 0.172-0.168 1.739-1.677 3.068-4.949 3.068-7.591 0-3.736-2.859-6.191-5.566-6.191-2.708 0-5.427 2.652-5.427 6.393 0 2.642 1.472 5.811 3.287 7.432C28.692 50.619 26.649 51.118 22.434 52.356z" fill="#000000" data-fill-palette-color="accent"></path></g></g></g></g></svg></g></svg></g><g></g></svg></g><defs></defs></svg><rect width="264.78461368499654" height="247.2" fill="none" stroke="none" visibility="hidden"></rect></g></svg></g></svg>